<?xml version="1.0" standalone="no"?><!DOCTYPE svg PUBLIC "-//W3C//DTD SVG 1.1//EN" "http://www.w3.org/Graphics/SVG/1.1/DTD/svg11.dtd"><svg t="1698396053735" class="icon" viewBox="0 0 1027 1024" version="1.1" xmlns="http://www.w3.org/2000/svg" p-id="5292" xmlns:xlink="http://www.w3.org/1999/xlink" width="16.046875" height="16"><path d="M613.072653 489.786144h-76.001043l-23.429254-72.268206-23.441257 72.268206h-76.001044l61.549803 44.469973-23.441257 72.280209 61.333755-44.686021 61.5378 44.686021-23.429254-72.280209 61.321751-44.469973zM830.693455 271.013084c6.133375 5.257179 14.235192 7.441669 18.400127 5.689276 1.200269-0.660148 2.148482-3.168711 2.616587-5.941333h-21.26877zM755.35256 168.726145a21.31678 21.31678 0 0 1 3.948886 0.216049c2.400538 0.432097 4.164934 1.308293 7.66972 4.164934 1.968441 1.752393 3.936883 0.876196 6.349423 0a20.788662 20.788662 0 0 0 3.720835-2.18449c5.689276-4.164934 6.349424-10.514358 4.801076-12.482799a32.515292 32.515292 0 0 1-4.801076-2.196493c-7.009572-3.060686-11.390554-5.473227-17.739978-5.701278h-2.844638c-3.504786 0-3.936883 2.196493-3.936883 4.597031V164.945298a3.396762 3.396762 0 0 0 2.832635 3.780847z" p-id="5293"></path><path d="M792.584909 204.650202c2.18449 1.968441-0.432097 3.720834-2.844637 2.400538-3.720834-2.400538-8.545916-5.917327-12.698848-8.101817-4.380982-2.196493-8.317865-2.844638-10.070258 1.320296-3.072689 7.66972-0.876196 11.606603 7.201614 15.771537 3.936883 1.968441 3.720834 5.257179-1.308293 6.565472-5.917327 1.536345-9.85421 2.844638-13.575044 3.936883-5.473227 1.320296-10.298309 1.752393-18.832223 0-1.308293-0.216048-2.844638-0.660148-4.380983-0.876196-2.628589-0.660148-6.349424 1.968441-7.441669 4.380982-2.196493 5.473227-0.216048 9.85421 5.473228 15.987585a12.674842 12.674842 0 0 0 6.349424 3.936883c3.072689 0.876196 6.133375 0.216048 9.422113-0.660148a11.774641 11.774641 0 0 1 9.422113 0.660148c4.380982 2.196493 9.422113 7.201615 17.739978 16.203634a19.624401 19.624401 0 0 1 1.968441 2.196493 5.713281 5.713281 0 0 1 0.060014 2.400538c-0.300067 1.980444-1.272285 4.344974-2.040458 7.201615a16.803768 16.803768 0 0 0-0.216048 8.761965c0 0.432097 0.216048 0.660148 0.216048 1.092245 1.968441 6.133375 6.349424 7.201615 12.482799 2.400538a21.412802 21.412802 0 0 0 3.936883-3.720834 50.243267 50.243267 0 0 0 6.349424-10.29831c0.960215-1.848415 1.896425-3.696829 2.868643-5.48523a35.311919 35.311919 0 0 1 5.665271-8.089814 16.251644 16.251644 0 0 1 11.390554-4.380982 4.092918 4.092918 0 0 1 4.164934 2.844637 23.81334 23.81334 0 0 0 6.541467 9.602154h21.26877a16.347666 16.347666 0 0 0-0.204046-7.417664c-0.876196-2.400538-3.288738-2.628589-5.257179-3.504786-3.504786-1.752393-12.266751-11.390554-15.603499-15.987585-3.936883-5.257179-11.174506-11.174506-13.803095-14.019144-2.400538-2.628589 1.968441-1.968441 3.504786-0.660148 1.752393 1.536345 3.936883 4.380982 8.545916 9.422113a12.482799 12.482799 0 0 1 1.752393 1.536345c2.400538 1.968441 4.164934 2.400538 6.565472 1.308293 2.196493-1.092245 1.536345-9.422113 3.060687-9.85421 1.320296-1.092245 1.752393 1.536345 2.628589 2.196493 1.308293 1.092245 9.422113 0 12.002692-2.196493 1.752393-1.536345 0.660148-5.689276 0-6.793523-8.101817-5.917327-14.235192-13.803095-16.863782-19.492372-1.752393-3.936883 0.4441-12.482799-0.216048-13.358995-1.536345-1.092245-4.380982-2.18449-5.473228-1.752393-0.660148 0.216048-0.216048 2.18449-1.752393 2.628589l-0.216048 0.216049c-8.101817-0.432097-9.194062-0.432097-15.603499-4.801077a3.960888 3.960888 0 0 1-1.092245-1.536345c-0.660148-1.092245 1.536345-0.660148 1.536344-1.752393 0-1.752393-0.432097-3.288738-7.009572-3.720834a45.610228 45.610228 0 0 0-5.917327-0.216048c-1.536345 0-2.18449 0.4441-2.628589 1.320296a6.469451 6.469451 0 0 0-0.4441 2.196492c-0.216048 1.752393-0.660148 3.720834-1.092245 5.689276 0 0.876196 0.876196 0.876196 1.536345 1.092245 0.4441 0 0.876196 0 0.876196 0.216048 0.4441 0.660148 0 0.876196-0.876196 1.320297a62.317975 62.317975 0 0 1-6.349424 1.320296c-1.968441 0.432097-3.720834 1.092245-4.164934 2.400538-1.812406 5.30519-0.060013 4.86109 3.444772 8.149828z m37.016302 11.822651a2.700606 2.700606 0 0 1 1.092244 1.752393 16.227639 16.227639 0 0 0 1.752393 3.288737c1.092245 1.308293 0.216048 0.432097 2.400539 3.060687 0.660148 0.876196 0 1.968441-0.876197 0.876196l-3.288737-3.288737c-2.18449-2.18449-4.380982-4.164934-4.380983-4.801077-0.204046-0.888199 1.980444-1.764396 3.300741-0.888199z m-49.283052 24.965599a15.603499 15.603499 0 0 1-3.288738 1.536344c-1.752393 0.4441-3.504786 0.876196-3.936883 0.4441-0.876196-1.092245-0.216048-5.701279 1.752393-7.453672a5.089141 5.089141 0 0 1 2.18449-0.876196 4.573026 4.573026 0 0 1 3.948886 0.432097c0.876196 0.672151 0.216048 5.04113-0.660148 5.917327z m16.863781 18.400126a4.248953 4.248953 0 0 1-3.720834 1.536344h-0.4441c-2.628589-1.092245-5.04113-10.298309-4.164934-11.822651 0.660148-0.876196 2.628589-0.660148 4.597031-0.216048a15.891564 15.891564 0 0 1 3.720835 1.536344c1.548347 1.308293 1.104248 7.429666 0.012002 8.966011z m4.380983-64.394441c1.092245-0.216048 3.936883 2.18449 6.793523 4.597031a10.922449 10.922449 0 0 0 1.752393 1.536345c1.536345 1.320296 4.380982 1.536345 5.473228 4.380982 0.432097 1.320296-1.536345 2.400538-2.62859 1.968441a9.074035 9.074035 0 0 1-6.133375-5.917327c-0.876196-2.18449-7.009572-5.689276-5.257179-6.565472z m-6.793524 13.142947c0.876196-1.092245 3.288738 1.092245 5.041131 1.968442 0.4441 0.4441 0.876196 0.4441 1.320296 0.660148 1.968441 0 5.04113 1.308293 3.720834 3.504786-1.092245 0.876196-3.060686 0.876196-5.04113-0.660148a0.468105 0.468105 0 0 0-0.4441-0.432097c-1.524342-1.536345-5.689276-3.720834-4.597031-5.041131z m5.041131 19.924469a46.414409 46.414409 0 0 1 8.545916 10.082261c0.216048 0.216048 0.216048 0.432097 0.4441 0.660148 0.660148 0.660148 0.432097 1.320296-0.4441 1.968441-1.092245 1.092245-3.720834 1.536345-4.380982 0.216049-1.092245-2.18449-0.876196-5.04113-4.164934-7.66972l-0.4441-0.4441c-1.536345-1.092245-2.628589-1.752393-3.288737-0.876197-0.660148 1.092245-1.968441 0.216048-2.62859-0.216048v-0.216048c-3.504786-2.844638-3.936883-6.793523-3.288737-8.329868a3.600807 3.600807 0 0 1 3.288737 0.216048 25.301674 25.301674 0 0 1 6.361427 4.657044zM720.520749 210.999625c6.349424-1.092245 13.575044-1.752393 19.924468-3.720834 4.380982-1.092245 8.545916-2.844638 11.174506-5.689276 1.536345-1.308293 2.628589-3.288738-0.432097-4.380982-5.04113-1.752393-8.329868-3.060686-10.730406-4.164934-4.380982-1.968441-5.689276-3.072689-9.422113-4.164934-7.885768-2.196493-18.400126 3.504786-19.276323 11.822651v2.400538a25.349685 25.349685 0 0 0 1.308293 4.597031 7.453672 7.453672 0 0 0 7.453672 3.30074zM740.45722 189.754861a0.216048 0.216048 0 0 0 0.216048 0.216049c2.18449 0.216048 12.266751-4.801077 13.803095-3.936883 1.092245 0.660148 0.432097 2.844638 1.536345 3.288737a9.338094 9.338094 0 0 0 3.288738-0.216048 41.793372 41.793372 0 0 1 5.04113-1.092245c1.536345-0.876196 2.628589-10.070258 0-11.822651a33.955615 33.955615 0 0 1-5.04113-1.092245c-6.133375-1.968441-11.174506-5.689276-18.832224-7.009572h-0.444099c-1.752393-0.216048-3.504786 0.876196-3.936883 3.936883a106.187813 106.187813 0 0 0 0.216048 14.40323c0.204046 1.128253 2.400538 2.880646 4.152932 3.324745zM499.743239 882.706258a31.206998 31.206998 0 0 0-14.235193-4.801076 20.572613 20.572613 0 0 0-16.479695 6.805526c-6.133375 6.565472-5.689276 19.048272 0.432097 25.841795a15.423459 15.423459 0 0 0 15.987585 4.164934 22.048945 22.048945 0 0 0 5.04113-2.62859c-0.660148 4.164934-2.400538 6.793523-5.04113 8.317866a10.982463 10.982463 0 0 1-2.844638 1.092245c-2.400538 0.876196-9.602153 0.432097-16.203634-3.936883l-1.752393 13.358996a56.928766 56.928766 0 0 0 20.812668 3.288737 44.614005 44.614005 0 0 0 6.349423-0.876196c16.263647-4.152931 20.428581-41.82938 7.93378-50.627354z m-8.978014 13.791093c-0.216048 3.288738-1.752393 6.577475-5.04113 6.793524h-0.216049c-3.288738 0-4.801077-3.060686-5.257179-6.349424-0.432097-3.720834 0.660148-7.441669 5.041131-7.885769h0.216048c4.380982 0.036008 5.48523 3.768845 5.257179 7.48968zM537.635736 877.269039c-7.009572 4.597031-12.482799 8.545916-16.863782 14.679292l7.441669 10.298309a22.56506 22.56506 0 0 1 8.761965-6.565472c0.660148 12.266751 1.752393 25.841795 2.400538 38.108546l15.351443-0.672151c-0.876196-18.616175-2.844638-38.108546-3.720834-56.508672zM253.123933 271.229132c-2.400538 2.628589-3.504786 5.04113-1.968441 7.009572a4.128926 4.128926 0 0 0 1.968441 0.876197c5.30519 1.548347 15.795542-2.868643 22.69709-10.082261H255.020359c-0.684153 0.744167-1.320296 1.536345-1.896426 2.196492zM200.168058 210.999625c2.196493 1.536345 0.432097 4.801077 1.536344 6.565473 0.876196 1.536345 6.133375 0.432097 9.85421 5.04113a23.201203 23.201203 0 0 1 1.536345 2.400539c0.432097 0.876196 1.536345 1.536345 3.948885 1.536344 2.400538-0.216048 6.133375-1.092245 6.565472-2.628589 0-9.602153 5.04113-8.101817 9.422113-11.390555 1.752393-1.308293 0-5.04113-1.092245-5.473227-8.101817-2.844638-17.739978-7.453672-18.616174-8.761965-0.876196-1.536345 0.216048-7.441669-1.320296-8.317865a0.684153 0.684153 0 0 0-0.432097-0.216049c-2.628589-1.320296-7.885768-1.968441-10.070259-0.444099-2.844638 1.968441 0 7.201615-2.844637 9.422113-3.720834 3.072689-10.070258-1.752393-9.422113 7.885768 0.372083 5.689276 6.949558 1.308293 10.934452 4.380982z" p-id="5294"></path><path d="M194.64682 249.984368c2.628589 1.092245 12.482799-4.380982 5.473227 4.380982-2.844638 3.936883-10.514358 8.329868-10.946455 10.070259s-1.11625 2.832635-0.552124 4.573025a10.802422 10.802422 0 0 0 1.416318 2.652595c0.4441 1.092245 1.968441 3.072689 3.072689 3.288738a120.459013 120.459013 0 0 1 18.400126 5.917327 50.159248 50.159248 0 0 1 6.133376 2.844638 11.918673 11.918673 0 0 1 3.936883 2.196492c1.092245 1.752393 0.216048 5.04113 1.536344 6.349424 2.400538 1.092245 7.201615 0.876196 8.761965 0 1.752393-1.752393-0.876196-14.019144-1.968441-14.679292-1.536345-1.092245-3.504786-0.216048-4.380983-1.308293-0.876196-1.308293 1.308293-3.060686 0-3.936883a32.035184 32.035184 0 0 0-8.569922-3.312743c-3.468778-1.056237-5.437219-2.268509-3.252729-7.429666 3.936883-8.978013 5.917327-10.730406 12.698848-18.832223 2.196493-2.628589 2.628589 1.752393 1.752393 2.844638-1.752393 2.196493-0.876196 7.453672 0.432097 8.101816 1.968441 1.092245 6.793523 1.320296 9.422112-0.876196 2.400538-1.536345 3.072689-4.164934 4.380983-6.565472 4.164934-7.66972 5.473227 1.536345 3.504786 4.801076-3.072689 5.473227-12.698848 12.482799-13.575044 15.327437a4.633039 4.633039 0 0 0 0.096021 2.616587 5.149155 5.149155 0 0 0 3.180713 3.732837c3.288738 1.308293 7.201615 1.752393 10.070259 0 0.900202-1.200269 1.788401-2.472554 2.700605-3.744839 1.536345-2.148482 3.096694-4.344974 4.801077-6.55347 2.400538-3.504786 5.04113-7.201615 7.66972-10.730406 3.504786-4.164934 7.885768-2.628589 6.565472 0.876196-1.704382 5.869316-7.98179 11.570595-12.338767 16.395677H275.785015c6.769518-7.057583 10.082261-16.803768 1.608361-26.261889-2.400538-3.936883 2.844638-9.85421 9.85421-17.52393 1.320296-1.536345 0.660148-8.761965-0.876197-9.85421-3.060686-1.752393-7.201615-4.380982-9.85421-1.968442-4.801077 4.380982-1.968441 10.946455-3.936883 10.946455-1.752393 0-4.164934 0-5.04113-1.308293-1.968441-3.060686 1.320296-9.194062-2.844638-9.602153-3.720834-0.216048-7.453672 1.320296-11.606603 4.380982a90.272244 90.272244 0 0 0-10.730406 9.194062c-12.698848 12.482799 2.400538-9.602153 10.730406-19.492371a28.422374 28.422374 0 0 1 3.720835-3.720835c4.801077-3.288738 9.85421-1.536345 14.235192-0.660148 3.504786 0.660148 1.536345 4.801077 3.504786 6.349424 2.628589 2.400538 6.793523 1.536345 10.298309 0.660148 1.968441-0.660148 4.164934-2.400538 4.380983-4.380982v-2.62859c-0.876196-8.545916-11.174506-19.492371-16.203634-21.460813-8.101817-3.288738-12.482799 1.320296-18.184078 10.29831-0.660148 0.432097-1.308293 0-1.752393-0.4441-0.876196-0.432097-1.752393-1.092245-1.968441 0.4441 0.216048 3.288738-0.432097 4.380982-2.62859 1.320296-6.565472-9.602153-14.235192-19.060274-17.07983-22.997157-2.628589-1.752393-11.174506-3.288738-13.575044 0-5.04113 6.793523-7.009572 12.266751-4.597031 18.184078 0.876196 2.196493 8.978013 0.216048 10.298309 2.400538 0.876196 1.092245-1.752393 0.432097-1.968441 1.968441 0.216048 1.092245 1.752393 1.536345 2.628589 2.196493 7.009572 5.04113 13.803095 1.092245 13.575045 14.235192a4.296964 4.296964 0 0 1-1.968442 2.844638c-5.917327 3.288738-9.422113 6.349424-11.822651 13.142947-0.876196 3.720834-1.320296 3.936883-12.482799 16.431685-0.660148 0.660148-1.320296 1.536345-1.968442 2.18449-2.844638 3.288738-3.504786 1.752393-1.968441-1.092245 1.968441-3.288738 3.720834-13.358996-1.092245-16.203633-5.473227-3.060686-7.66972 8.761965-9.422113 7.009571-2.628589-2.400538 2.196493-3.948886 1.752393-8.545916-1.092245-4.164934-4.380982-7.441669-7.66972-5.917327-0.876196 0.432097-4.380982 5.473227-5.689276 5.041131-1.308293-0.660148 2.844638-5.917327 2.18449-6.793524-10.298309-15.327437-18.172075-4.380982-18.832223 6.793524V226.159025a20.82467 20.82467 0 0 0 1.968441 7.66972c9.002019 4.54902 14.907343 12.21874 23.885357 16.155623zM251.779632 233.36064a4.621036 4.621036 0 0 1 1.320296-0.876196 4.272958 4.272958 0 0 1 4.380982-0.660148c0.432097 0.216048 0.216048 1.968441 0 3.720834h-3.720834c-1.308293 0.876196 0.216048 1.752393-0.660148 2.196492h-0.216049c-0.660148 0.216048-3.720834 0.216048-4.59703-0.432096 0.240054-1.344301 0.900202-1.992447 3.492783-3.948886zM351.245937 146.605185c5.917327 1.536345 5.04113 1.308293 7.885769-2.844638 4.380982-6.349424 12.266751-10.298309 19.936471-12.926899 6.349424-2.18449 5.257179-1.308293 5.04113 3.936883-1.536345 20.152519-4.380982 29.346581-23.213205 39.428842-3.936883 1.968441-5.04113 1.752393-4.380983 6.793523 0.216048 2.400538 1.092245 5.689276 3.060686 12.698848 1.536345 4.801077 0.432097 4.380982 5.257179 3.288738 31.759122-6.565472 31.975171-21.028716 33.067416-58.045017 27.162091 16.431685 65.702734 46.654462 81.690319 1.536344-26.717992-4.164934-49.283052-8.978013-74.032602-17.307881-2.628589-0.876196-1.092245-5.473227 0-5.689276 9.85421-2.628589 24.74955-3.720834 32.407268-11.822651 1.752393-1.968441-0.432097-17.307881-2.844638-17.739978-11.822651-1.968441-22.56506 5.701279-38.552646 11.606602-5.473227 2.196493-5.917327 3.936883-7.201615-1.536344-0.876196-4.164934-1.968441-8.101817-2.844638-12.002692-0.216048-1.308293-0.660148-1.752393-2.628589-1.536344-6.133375 0.660148-7.441669 0.660148-11.390555 4.597031-0.876196 0.876196-0.876196 1.536345-0.660148 3.288737 0.660148 4.801077 1.320296 9.422113 1.968442 14.235192 0.660148 4.597031 1.968441 4.597031-2.62859 6.565473-13.575044 5.917327-31.315023 10.070258-30.666877 26.501943a21.880907 21.880907 0 0 0 10.730406 6.973564zM533.038705 134.938569c12.266751 6.793523 40.076987 6.349424 56.508673 9.422112 0.876196 0.216048 1.536345 0.216048 2.184489 0.4441v3.936883c-0.660148-0.216048-1.308293-0.216048-2.184489-0.432097-16.431685-2.628589-43.581773-5.917327-45.994315 1.308293-3.720834 11.390554 29.790681 3.072689 39.860939 14.235193 4.380982 5.04113-0.876196 13.358996-1.308293 20.152519-0.4441 5.917327 3.720834 5.473227 7.441669 1.968441a22.132963 22.132963 0 0 0 2.844637-3.504786c2.400538-4.380982 0.660148-13.358996 5.701279-14.235192a22.288998 22.288998 0 0 1 10.070258 0.432097c3.060686 0.876196 6.133375 1.968441 9.194062 3.060686 5.473227 1.968441 11.174506 3.720834 18.184078 3.072689 1.752393-0.432097 4.597031-3.936883 2.844638-5.04113a153.634453 153.634453 0 0 0-21.028716-11.174506c-3.060686-1.536345-6.133375-2.844638-9.194062-4.380982l-4.597031-2.62859a32.791354 32.791354 0 0 1 4.597031 0.432097q4.272958 0.984221 9.194062 2.628589c7.201615 2.400538 15.603499 6.133375 22.997157 8.761965 13.803095 5.257179 25.625747 7.66972 26.946043-3.936882v-1.320297c-0.4441-7.885768-15.111389-11.174506-26.946043-13.358995q-5.257179-0.984221-9.194062-1.968442v-5.917327a28.36236 28.36236 0 0 0 9.194062 2.400539c3.060686 0.216048 5.917327-0.216048 7.201615-2.400539 7.009572-10.070258-8.317865-12.266751-3.936883-26.501943 0.216048-0.876196 1.092245-5.04113 3.504786-5.04113 1.536345-0.216048 1.968441 1.092245 4.597031 0.216048 3.060686-1.092245 5.473227-8.978013 2.844638-11.822651-3.720834-1.968441-9.422113-3.504786-14.235192-5.257179-0.432097-0.216048-1.092245-0.4441-1.536345-0.660148-0.432097-3.504786 1.968441-7.66972-0.216048-10.29831-1.968441-2.18449-5.917327-2.628589-8.545917-1.536344-2.196493 1.092245-3.504786 7.009572-4.801076 7.009572a25.757776 25.757776 0 0 1-7.885769-1.536345 94.185121 94.185121 0 0 1-9.194061-3.288737c-1.968441-0.876196-3.936883-1.536345-5.689276-2.400539-0.876196-0.432097-5.917327-1.968441-3.720835-3.504786 0.432097-0.432097 0.216048-1.536345-0.876196-1.968441-2.400538-1.092245-5.917327-2.400538-7.885769-1.536345-0.216048 0-0.216048 0.216048-0.444099 0.216049-1.536345 1.092245-1.968441 4.380982-3.504786 5.04113-5.04113 2.196493-11.606603-0.216048-17.739978 0.432097-3.060686 0.432097-4.380982 1.536345-4.597031 4.801077-0.216048 3.720834-0.660148 8.101817 0.216048 9.194062 1.320296 1.752393 8.978013 0 8.317865 2.400538-0.216048 0.876196-3.288738 1.320296-4.59703 2.400538-1.536345 1.092245-1.752393 7.201615 0 8.761965 1.536345 1.308293 5.257179 0 6.565472 1.536345 1.320296 1.308293-1.092245 4.380982-2.844638 4.801076-3.504786 0.660148-14.235192-1.752393-16.863782 1.092245-2.18449 2.18449-1.308293 7.201615 4.164934 14.679292-9.85421-1.968441-15.987585-3.504786-22.12096-1.536344-6.781521 2.112474-9.626159 9.122046-3.492784 12.35077z m103.823283-34.171664c0.876196-1.536345 1.308293-0.876196 3.504786 0.660148 1.752393 1.320296 3.936883 1.752393 3.504786 2.400539-0.216048 0.660148-1.320296-0.216048-3.504786-1.092245a0.792178 0.792178 0 0 1-0.660148-0.216049c-1.752393-0.600135-3.504786-0.372083-2.844638-1.692379z m-18.184078 9.194062c2.18449-0.216048 4.597031 1.752393 7.009572 2.844638 1.092245 0.876196 1.968441 3.936883 1.320296 4.597031-3.060686 0.432097-8.545916 0.216048-9.602153 1.752393v0.216048a2.976668 2.976668 0 0 0 0 1.968442c0.876196 3.504786 4.380982 10.070258 3.936883 11.822651a10.802422 10.802422 0 0 1-3.936883 1.092245 16.263647 16.263647 0 0 1-5.917327 0.660148c-1.092245-0.432097-2.400538-0.876196-3.288738-1.320296-0.216048-0.216048-0.4441-0.432097-0.660148-0.432097a9.85421 9.85421 0 0 1 0.660148-4.597031c1.752393-5.689276 6.349424-14.679292 9.194062-17.739978 0.62414-0.360081 1.06824-0.792178 1.284288-0.792178z m-18.616175-19.204306c0.660148-1.536345 2.628589-0.4441 7.66972 0.660148h0.4441c1.092245 0.216048 2.400538 0 3.288737 0.432096 3.288738 1.092245 5.701279 3.288738 4.597031 4.380983s-3.060686 0.660148-5.689275-1.092245a9.338094 9.338094 0 0 0-2.18449-1.536345c-0.4441-0.216048-0.876196-0.216048-1.092245-0.444099-2.220498-0.648145-7.477677-1.524342-7.033578-2.400538zM581.001461 125.336415c0.876196-0.660148 1.308293 1.092245 2.62859 1.320296 0.876196 0.216048 3.720834-2.628589 5.917327-4.380982a3.000673 3.000673 0 0 0 0.876196-0.660148c0.876196-0.660148 0.216048-3.720834-0.876196-6.793524-0.876196-3.072689-1.752393-6.133375-1.536345-7.201615 0-0.216048 0.660148-0.4441 1.536345-0.660148 3.072689-0.660148 9.422113-0.876196 9.602153 2.196493 1.320296 14.235192-3.720834 18.004037-4.801077 18.400126a26.80201 26.80201 0 0 1-4.801076 1.092245c-3.936883 0.660148-8.978013 1.092245-9.422113 0.4441-0.432097-0.228051 0-3.072689 0.876196-3.756843zM625.243382 883.618463l5.917327 15.555488 41.829381-16.431685-5.905324-15.327437-41.841384 16.203634zM345.556662 880.329725l41.82938 16.215637 5.917327-15.33944-41.82938-16.203634-5.917327 15.327437zM585.382444 871.351712c-6.565472 5.04113-12.002692 9.422113-15.771537 15.771537l7.885768 9.85421a26.549954 26.549954 0 0 1 8.317865-7.441669c1.308293 12.482799 3.504786 25.841795 5.041131 38.108546l15.123391-1.728388c-1.968441-18.400126-5.257179-37.892498-7.441668-56.292624zM411.919544 880.557777l5.04113 11.606602a22.901136 22.901136 0 0 1 9.85421-4.801076c-1.752393 12.002692-3.288738 25.625747-5.04113 37.892497l15.111388 2.196493c2.844638-18.184078 4.801077-37.892498 7.441669-56.076576l-13.142947-1.968441c-7.657717 3.048684-14.007141 6.097367-19.26432 11.150501zM869.01805 342.417096a10.802422 10.802422 0 1 0 0-21.688863 10.802422 10.802422 0 0 0 0 21.688863zM156.322225 341.972997a10.958457 10.958457 0 1 0-10.730406-10.946455 10.982463 10.982463 0 0 0 10.730406 10.946455zM800.230624 804.304676l-22.949146-26.405921-9.122046 7.933779 22.949146 26.405922q3.852864 4.428993 4.573026 7.381655 1.512339 5.029128-3.936883 9.770191t-10.250299 2.568576q-2.820633-1.128253-6.673496-5.557246l-22.949147-26.405922-9.182059 7.933779 22.949147 26.405922q6.001346 6.853537 11.402557 8.821978 10.070258 3.528791 21.232761-6.181386t9.05003-20.140516q-1.140256-5.677273-7.093591-12.530811zM801.86299 745.81556l31.315023 24.473488-45.274153-6.60148-7.681723 9.830204 44.854059 35.04786 6.829531-8.73796-31.867146-24.893582 46.174355 6.565472 7.333644-9.362099-44.866061-35.04786-6.817529 8.725957zM813.021893 729.068204l6.265405-10.025848 48.278426 30.167565-6.265405 10.025849zM840.091563 679.956791l32.839364 30.726891-44.109891-8.60593-5.761292 11.318538 59.449331 8.713954 5.101144-10.022247-41.901396-43.149677-5.61726 11.018471zM894.991875 668.770282l-13.755085-5.005122 9.458121-25.985827-9.290083-3.38476-9.446119 25.985828-11.366549-4.128926 10.310313-28.31435-9.482127-3.444772-14.2712 39.224796 53.483994 19.468366 14.76331-40.53309-9.626158-3.492783-10.778417 29.61064zM926.114854 583.779223a29.154538 29.154538 0 0 1-5.209168-0.984221l-3.708832-0.924207q-5.809303-1.440323-9.014021-0.540121a10.502355 10.502355 0 0 0-5.725284 4.308966 11.462571 11.462571 0 0 0-3.720835-7.897771 17.175852 17.175852 0 0 0-7.201615-3.92488 15.603499 15.603499 0 0 0-6.073362-0.396089 17.679965 17.679965 0 0 0-5.3532 1.692379 14.40323 14.40323 0 0 0-5.185163 4.356977 25.865801 25.865801 0 0 0-3.600807 8.55792l-6.757516 27.090075 55.212382 13.767087 2.80863-11.28253-21.604845-5.401211 2.976667-11.918673q1.272285-5.101144 3.492784-6.493456t7.525687-0.192043l5.149155 1.200269a28.05029 28.05029 0 0 0 4.885095 0.696156h3.144706l2.976667-12.686845-1.392312-0.348078a4.801077 4.801077 0 0 1-3.624813 1.320296z m-31.206998 13.082934l-3.264732 13.082934-14.835327-3.696829 3.348751-13.41901a13.02292 13.02292 0 0 1 2.400538-5.377206q2.556573-2.904651 7.573699-1.656371 4.645042 1.200269 5.365203 4.99312a15.039373 15.039373 0 0 1-0.552124 6.073362zM922.021936 523.045603q-7.549693-0.924207-12.158726 3.600808a25.37369 25.37369 0 0 0-5.293187 9.158053l-3.528792 9.446119a32.983397 32.983397 0 0 1-3.240727 7.069585 4.897098 4.897098 0 0 1-4.801076 2.124476 5.905324 5.905324 0 0 1-4.801077-3.348751 12.902894 12.902894 0 0 1-0.948212-7.513685 15.039373 15.039373 0 0 1 2.256506-6.685499 8.16183 8.16183 0 0 1 7.789746-3.600807l1.392313-11.342544q-9.05003-0.792178-14.53526 4.945109a24.689537 24.689537 0 0 0-6.625486 14.631281q-1.308293 10.694398 3.024679 16.803768a16.443688 16.443688 0 0 0 11.930675 7.069586q8.317865 1.020229 12.926899-4.212945 2.748616-3.084692 5.821305-11.654614l2.076466-5.809302a26.633973 26.633973 0 0 1 3.600808-7.381656 4.873093 4.873093 0 0 1 4.633039-1.92043q4.801077 0.588132 6.001345 5.749289a20.968702 20.968702 0 0 1 0.084019 6.901548q-0.852191 6.973564-4.693052 9.422113a11.666616 11.666616 0 0 1-6.001346 1.404315l-1.38031 11.270527a16.923795 16.923795 0 0 0 14.511255-4.537017q5.7973-5.701279 7.201615-16.803769 1.320296-10.802422-3.048684-17.343889a16.443688 16.443688 0 0 0-12.194735-7.441669zM881.779312 510.316749l0.412892-11.81545 56.892759 1.986445-0.411693 11.81545zM872.414812 411.600611l26.597964 5.917327-21.784885 16.707747 2.760619 12.998915-0.18004 0.012003 3.216721 45.994314 10.058256-0.708159-1.188267-17.055825 46.726479-3.276735-0.840189-11.942678-46.726478 3.264732-1.188267-16.983808-8.809975 0.612137 29.74267-25.853798 20.920691-4.440996-2.472554-11.642611-20.920692 4.452999-38.708681-11.234519 2.796628 13.178955zM145.075703 443.97187l9.85421 2.280512 10.430339-45.130121-9.866213-2.268508-3.864866 16.731752-45.83828-10.574372-2.700605 11.714627 45.826276 10.574372-3.840861 16.671738zM109.52373 498.007988q7.609707 0.660148 12.074708-4.080915a25.517722 25.517722 0 0 0 4.981117-9.374102l3.216722-9.602153a33.17544 33.17544 0 0 1 3.000672-7.201615 4.921104 4.921104 0 0 1 4.801077-2.304517A5.92933 5.92933 0 0 1 142.555138 468.613396a12.962907 12.962907 0 0 1 1.200269 7.501683 15.123391 15.123391 0 0 1-2.040458 6.793523 8.197838 8.197838 0 0 1-7.693725 3.840861l-0.996223 11.438566q9.110043 0.480108 14.40323-5.473228a24.809564 24.809564 0 0 0 6.133375-14.919346q0.948213-10.802422-3.600807-16.803768a16.515704 16.515704 0 0 0-12.206738-6.649491q-8.401884-0.732164-12.830877 4.68105-2.652595 3.192716-5.43722 11.90667l-1.884422 5.905324a26.717992 26.717992 0 0 1-3.348751 7.537691 4.897098 4.897098 0 0 1-4.585028 2.088468q-4.801077-0.420094-6.169384-5.557246a21.052721 21.052721 0 0 1-0.324073-6.925553q0.612137-7.033577 4.380983-9.602154a11.714627 11.714627 0 0 1 6.001346-1.60836l0.996223-11.354547a16.995811 16.995811 0 0 0-14.547262 5.149155q-5.61726 5.92933-6.589478 17.055825-0.948213 10.898444 3.660821 17.295878a16.503701 16.503701 0 0 0 12.446791 7.093591zM94.346327 516.675775l57.0776-2.992271 0.621739 11.855058-57.0788 2.991071zM158.458704 576.673629L119.149889 583.599182l35.347927-29.346581-2.172487-12.338767-56.292624 9.926226 1.932433 10.958458 39.992969-7.04558-35.936059 30.042737 2.064463 11.762638 56.292624-9.926226-1.920431-10.958458zM147.236188 635.45081l-9.026025 3.108697L142.555138 651.054309a15.087383 15.087383 0 0 1-10.154277-1.500336 14.175179 14.175179 0 0 1-6.469451-8.185836 15.795542 15.795542 0 0 1 0.588132-11.77464q2.580579-6.001346 12.554815-9.41011t16.251645-0.924208a14.259198 14.259198 0 0 1 8.641938 9.038027 16.299655 16.299655 0 0 1 0.924207 6.613483 11.198511 11.198511 0 0 1-5.581252 8.930003l3.828859 11.114492a20.404576 20.404576 0 0 0 10.538363-11.666616q3.096694-8.041803-0.444099-18.340113-4.092918-11.882665-14.499252-16.383674t-23.537278 0q-12.97491 4.465001-18.004038 14.199184a24.173421 24.173421 0 0 0-1.380309 20.164522 21.820893 21.820893 0 0 0 6.541467 10.058256 27.402145 27.402145 0 0 0 7.441669 3.996896l-6.361427 3.456775 2.580579 7.477677 28.998503-9.986239zM202.040478 691.863461l-19.060275 10.562369-10.826428-19.540382 19.060275-10.562369-5.737287-10.34632-49.991211 27.714215 5.725284 10.34632 22.325007-12.374775 10.826428 19.540382-22.325007 12.374775 5.749289 10.382328 50.003214-27.714215-5.749289-10.382328zM244.049898 750.67665l-7.465674-9.602153-27.690209 21.604845q-4.645042 3.600807-7.645715 4.200942-5.125149 1.200269-9.602153-4.465001t-2.040458-10.418337q1.284288-2.772622 5.92933-6.397434l27.690209-21.604845-7.477677-9.602154-27.690209 21.604845q-7.201615 5.61726-9.446119 10.97046-4.068912 9.914223 5.077139 21.604845t19.720422 10.130272q5.749289-0.900202 12.926899-6.505459zM212.170749 800.643856l9.134049 8.521911 10.910446-5.893322 15.399454 14.40323-5.353201 11.018471 9.470124 8.833981 24.185424-55.620473-9.866213-9.206065z m39.716907 7.501682l-10.610379-9.890218 20.728648-11.426563z" p-id="5295"></path><path d="M983.847801 313.382585a511.938804 511.938804 0 1 0 40.112995 198.644547 508.578051 508.578051 0 0 0-40.112995-198.644547z m-28.398369 385.286402a481.103889 481.103889 0 1 1 37.67645-186.629852 477.899171 477.899171 0 0 1-37.67645 186.61785z" p-id="5296"></path><path d="M838.615232 519.228747a326.173146 326.173146 0 1 0-95.529423 230.643723 324.072675 324.072675 0 0 0 95.529423-230.643723z m-34.003625-16.803768h-138.030954a154.342612 154.342612 0 0 0-33.355481-80.334015l97.641897-97.641897a290.165071 290.165071 0 0 1 73.732535 178.01192zM529.197844 227.059227a290.165071 290.165071 0 0 1 177.975912 73.720532l-97.641897 97.641897a154.330609 154.330609 0 0 0-80.334015-33.35548z m-33.523518 0v138.030954a154.330609 154.330609 0 0 0-80.334015 33.35548l-97.641897-97.641897a290.165071 290.165071 0 0 1 177.975912-73.744537z m-201.64522 97.425848l97.641897 97.641897a154.330609 154.330609 0 0 0-33.35548 80.334015h-138.030954a290.165071 290.165071 0 0 1 73.708529-177.975912z m-73.75654 211.49943h138.030954a154.330609 154.330609 0 0 0 33.35548 80.334015l-97.641896 97.641896a290.165071 290.165071 0 0 1-73.744538-177.975911zM495.674326 811.386265a290.165071 290.165071 0 0 1-177.975912-73.720533l97.641897-97.641896a154.330609 154.330609 0 0 0 80.334015 33.35548z m-104.783498-292.169521a121.539256 121.539256 0 1 1 121.551258 121.551259 121.671285 121.671285 0 0 1-121.539255-121.539256z m138.307016 292.169521v-138.030954a154.330609 154.330609 0 0 0 80.334015-33.355481l97.641897 97.641897a290.165071 290.165071 0 0 1-177.975912 73.744538z m104.039331-195.067745a154.342612 154.342612 0 0 0 33.35548-80.334015h138.030954a290.165071 290.165071 0 0 1-73.720532 177.975911z" p-id="5297"></path></svg>