<?xml version="1.0" standalone="no"?><!DOCTYPE svg PUBLIC "-//W3C//DTD SVG 1.1//EN" "http://www.w3.org/Graphics/SVG/1.1/DTD/svg11.dtd"><svg t="1698300431021" class="icon" viewBox="0 0 4006 1024" version="1.1" xmlns="http://www.w3.org/2000/svg" p-id="1950" width="62.59375" height="16" xmlns:xlink="http://www.w3.org/1999/xlink"><path d="M2881.001739 121.366261c-132.407652 89.132522-181.915826 226.749217-181.915826 364.544 0 145.808696 57.878261 275.411478 190.107826 364.544 132.452174 97.725217 438.984348 129.558261 712.258783 129.558261A3359.610435 3359.610435 0 0 0 4006.956522 955.65913v-145.808695c-140.243478 16.205913-198.566957 24.397913-347.625739 32.411826-157.250783 8.236522-306.487652-16.205913-414.096696-80.896-90.957913-64.690087-140.243478-129.558261-140.243478-275.411478 0-105.338435 24.665043-194.29287 107.609043-258.982957 107.564522-81.118609 256.623304-105.516522 430.525218-105.516522A1620.591304 1620.591304 0 0 1 4006.956522 161.792V8.236522C3858.120348 0 3775.176348 0 3585.024 0 3303.334957 0 3013.453913 32.233739 2881.001739 121.366261zM1415.835826 16.027826v129.78087a2993.374609 2993.374609 0 0 1 455.190261-32.456348c91.180522 0 223.588174 8.013913 273.274435 32.500869a105.516522 105.516522 0 0 1 57.878261 97.680696 138.99687 138.99687 0 0 1-41.227131 97.725217 283.737043 283.737043 0 0 1-140.243478 48.662261 2030.32487 2030.32487 0 0 1-273.096348 16.027826h-207.738435v113.574957H1763.06087c132.407652 0 240.417391 0 298.117565 16.250435 74.529391 16.205913 115.756522 32.411826 148.836174 64.690087 33.836522 23.062261 33.836522 63.532522 33.836521 104.537043 0 48.706783-24.798609 89.132522-90.735304 121.410783-58.10087 24.442435-190.553043 32.456348-289.881043 32.456348-149.058783-8.013913-306.309565-16.250435-463.60487-32.50087v129.647304c165.487304 8.013913 422.333217 24.397913 480.834783 24.397913 223.588174 0 480.834783-16.428522 604.42713-73.104695 75.464348-42.028522 124.616348-117.804522 131.250087-202.306783 0-40.648348 0-89.088-33.079652-121.544348-24.84313-40.470261-58.10087-56.676174-115.979131-81.118608-57.878261-24.442435-90.957913-32.055652-198.566956-48.484174 115.622957-32.634435 157.295304-49.062957 215.796869-81.118609a175.193043 175.193043 0 0 0 90.957914-154.045217c0-64.690087-33.079652-121.366261-124.215653-161.792C2350.881391 16.205913 2087.001043 0.178087 1912.921043 0.178087 1804.911304 0 1589.737739 0 1415.791304 16.027826zM935.001043 0v404.791652H347.581217V0H0v980.012522h347.581217v-461.690435h588.043131v461.690435h347.803826V0h-348.427131z" fill="#d81e06" p-id="1951"></path></svg>