<?xml version="1.0" standalone="no"?><!DOCTYPE svg PUBLIC "-//W3C//DTD SVG 1.1//EN" "http://www.w3.org/Graphics/SVG/1.1/DTD/svg11.dtd"><svg t="1698392326197" class="icon" viewBox="0 0 1024 1024" version="1.1" xmlns="http://www.w3.org/2000/svg" p-id="883" xmlns:xlink="http://www.w3.org/1999/xlink" width="16" height="16"><path d="M738.7136 394.0352h71.2704v134.9632h62.6688v63.0784h-134.3488v-196.608c0-0.6144 0-1.2288 0.4096-1.4336z m-273.6128-11.8784c15.1552 10.0352 30.5152 19.6608 44.6464 30.5152-31.9488 20.0704-63.488 40.96-95.4368 61.2352 4.9152 3.6864 10.4448 6.7584 15.1552 10.4448 32.3584-20.48 64.512-40.7552 96.4608-61.2352 14.336 8.8064 28.672 18.0224 41.7792 28.0576-32.1536 20.2752-63.0784 41.5744-95.0272 62.0544 4.7104 3.8912 10.6496 6.7584 15.7696 10.0352 32.9728-20.0704 64.9216-40.96 97.28-61.6448v-67.584h71.2704v134.5536c20.0704 1.024 42.3936 0 63.2832 0.4096v63.0784H585.728v-64.1024c-39.3216 24.1664-79.872 51.2-119.6032 76.5952-41.3696-26.8288-81.3056-55.296-122.4704-82.1248-12.0832 37.888-40.5504 66.3552-87.4496 69.632-29.2864 2.2528-62.6688-1.4336-96.44032 0v-198.0416c42.22976 2.8672 88.65792-5.5296 122.04032 4.9152 29.696 9.0112 50.5856 32.768 60.416 62.0544 41.1648-25.8048 81.92-52.4288 122.88-78.848z m-237.3632 75.5712v71.2704c16.9984 0 29.9008 1.024 39.936-6.5536 14.7456-11.6736 17.8176-39.936 4.7104-55.0912-8.8064-10.24-23.7568-12.288-44.2368-11.0592-0.6144 0.2048-0.4096 0.8192-0.4096 1.4336zM494.1824 31.70304h29.4912c143.1552 8.06912 245.3504 62.464 320.9216 138.69056 75.776 76.1856 131.6864 176.7424 139.264 320.512v28.672c-7.3728 146.0224-64.3072 242.4832-139.264 320.9216-78.6432 74.5472-175.3088 131.072-321.536 138.24h-28.8768c-143.36-7.9872-245.3504-62.464-321.1264-138.6496-75.71456-76.1856-131.6864-176.7424-139.1616-320.512v-28.672c0.36864 0 0.55296-0.2048 0.47104-0.8192 7.168-143.36 63.44704-244.9408 138.69056-320.16384 75.5712-75.61216 178.7904-130.39616 321.1264-138.21952z m-93.184 67.91168c-28.2624 7.55712-53.4528 17.16224-76.3904 28.50816-69.8368 34.52928-127.42656 83.84512-167.69024 147.33312-39.30112 61.6448-73.33888 141.312-68.4032 245.5552 3.11296 65.7408 18.10432 120.832 41.79968 168.1408 46.77632 92.9792 118.10816 161.5872 216.61696 203.1616 48.7424 20.6848 109.1584 35.0208 177.152 31.9488 65.3312-3.2768 121.856-17.8176 168.5504-41.3696 91.7504-46.2848 164.2496-117.3504 204.3904-215.6544 20.2752-49.7664 35.4304-107.1104 32.1536-176.7424-6.144-131.6864-59.8016-221.184-130.6624-289.23904-34.816-33.71008-77.0048-62.38208-126.7712-83.10784-48.128-20.11136-110.7968-35.0208-177.9712-31.82592-33.1776 1.57696-64.3072 5.67296-92.7744 13.29152z" fill="" p-id="884"></path></svg>