<?xml version="1.0" standalone="no"?><!DOCTYPE svg PUBLIC "-//W3C//DTD SVG 1.1//EN" "http://www.w3.org/Graphics/SVG/1.1/DTD/svg11.dtd"><svg t="1698365999593" class="icon" viewBox="0 0 2048 1024" version="1.1" xmlns="http://www.w3.org/2000/svg" p-id="8661" xmlns:xlink="http://www.w3.org/1999/xlink" width="32" height="16"><path d="M125.67 517.38c-1.014 3.066-3.05 6.13-4.08 10.208-13.262 35.706-26.522 71.418-39.784 106.098-3.06 7.144-3.06 8.172-11.22 8.172H3.242c0-1.024 0-1.024-1.016-1.024v-3.052c30.604-83.668 62.23-167.328 92.84-252.012 1.016-2.04 1.016-3.056 2.042-5.086h77.538c-12.25 33.662-24.484 65.29-36.73 98.958 3.068 0 4.078 1.014 6.116 1.014h80.608c5.104 0 7.148-2.032 9.184-7.132 10.198-27.548 20.404-55.096 30.6-83.67 1.028-3.052 3.068-7.136 4.092-10.2h77.538c-1.022 3.06-1.022 6.12-2.05 8.16-23.458 63.266-46.926 127.534-70.394 190.8l-15.302 42.85c-5.104 14.274-13.26 19.378-27.546 19.378H172.61c15.298-41.828 30.6-81.618 44.886-122.426-5.104-2.048-80.602-2.048-91.826-1.036zM711.296 641.86h-63.25c-13.26 0-22.446-5.104-27.55-17.356-9.182-17.338-18.366-34.678-26.518-52.026-6.13-12.238-13.274-25.516-19.39-37.75-1.016-2.04-2.044-4.076-4.084-7.142-9.178 7.142-19.39 12.246-23.466 24.488-9.182 26.532-19.378 53.052-29.588 80.598-1.012 3.056-2.04 6.118-4.078 9.188h-77.542c32.65-87.748 64.282-173.444 95.908-260.172h78.554c-11.224 31.628-23.458 63.252-34.682 93.87l1.016 1.014c2.038-1.014 4.078-3.05 6.128-4.08 36.72-28.568 73.448-56.108 110.178-84.684 6.13-4.08 11.222-6.12 18.364-6.12h45.918c-4.082 6.12-10.21 9.184-15.304 13.262l-15.312 12.242c-5.092 4.084-11.22 8.162-16.314 12.24-5.102 4.092-11.222 8.172-16.326 12.248l-15.314 12.24c-5.088 4.084-11.222 8.166-16.31 12.24l-15.314 12.25c-5.092 4.078-11.224 8.156-16.312 13.262 1.012 3.066 2.038 5.104 3.048 8.168 24.488 46.928 48.982 93.852 72.436 140.794 1.026 3.058 3.068 6.122 5.104 11.226z" fill="#BA2921" p-id="8662"></path><path d="M1950.902 641.86c-12.24 0-24.494 1.016-35.712 0-11.222-1.024-17.346-8.172-21.416-18.362-8.174-21.44-16.328-42.85-24.486-65.294-10.212-28.576-21.432-57.136-31.638-85.71-1.016-2.038-2.044-5.112-4.08-9.182-2.038 5.104-3.054 8.168-4.082 11.22-19.376 52.032-38.768 103.042-57.13 155.08-5.11 14.288-3.07 12.248-17.338 12.248h-24.506c32.648-87.748 64.284-173.444 95.912-260.172h47.948c22.444 57.138 45.91 115.284 68.36 173.448 4.078-1.024 4.078-5.104 5.102-7.146 12.246-32.646 23.464-64.276 35.7-96.918 7.146-20.406 15.324-40.81 22.446-61.226 1.024-2.038 2.056-5.088 3.072-7.134h36.726c-30.604 85.704-62.238 172.426-94.878 259.148zM784.76 381.688h72.432c3.064 29.588 5.106 59.176 7.146 87.75 3.068 29.582 4.076 59.178 7.14 87.738h2.042c1.014-2.04 3.064-4.078 4.074-6.12 36.732-54.084 72.436-108.154 109.164-162.228 4.086-6.118 8.172-9.178 16.336-9.178 10.196 1.026 19.376 0 30.606 0-1.022 3.06-2.046 5.104-3.066 7.144-54.062 80.586-108.142 161.196-162.218 240.776-6.116 9.184-14.28 13.264-24.482 13.264H813.32c-2.038 0-5.092 0-8.156-1.018-6.12-85.704-13.266-171.4-20.404-258.128zM1373.442 380.678c0 2.032 0 3.048-1.022 4.078-3.056 9.184-7.144 18.368-10.202 27.55h-106.11c-11.222 0-18.364 4.078-23.464 14.27-4.076 8.172-3.064 17.346 3.064 24.496 10.202 11.216 20.4 23.458 30.598 33.666 12.252 13.262 25.508 25.51 35.724 40.814 26.52 41.832 5.092 98.956-42.862 112.23-6.122 2.042-12.236 3.052-18.354 3.052h-140.8c-2.044 0-4.088 0-7.13-1.016 2.038-5.104 4.072-10.208 5.086-15.316l6.132-15.3c4.076 0 7.134-1.014 11.214-1.014h106.114c18.362-1.024 28.564-20.404 19.39-36.728-8.172-14.288-19.39-26.536-30.614-38.772-9.19-9.182-18.362-19.392-26.536-28.574-26.532-31.626-23.458-76.512 6.124-104.064 14.292-13.26 31.634-19.378 49.996-19.378l133.652 0.006z" fill="#5E5E5C" p-id="8663"></path><path d="M399.1 380.678h76.53c0 6.118-88.764 246.894-94.894 260.158h-77.542c31.63-86.724 63.266-173.454 95.906-260.158z" fill="#BA2921" p-id="8664"></path><path d="M1404.052 640.836h-72.438c32.636-87.736 64.268-173.454 95.902-260.158h71.408c-1.008 7.128-87.73 245.88-94.872 260.158zM971.468 639.82c31.628-85.708 63.25-172.442 95.896-259.142h72.442c-1.026 4.078-2.038 7.128-3.058 10.196-28.568 76.506-56.114 153.042-84.688 229.548-2.038 5.112-4.078 10.212-6.112 16.332-1.02 3.064-3.074 5.104-6.122 5.104h-65.292c-1.03 0.002-2.058-1.022-3.066-2.038zM1663.192 379.368c11.222 0 23.468-1.016 34.692 0 36.73 3.06 65.284 40.808 58.138 77.536-9.174 41.834-22.438 82.65-44.878 119.38-25.51 42.85-64.284 66.31-114.276 68.352-17.344 1.014-35.708 0-53.058 0-40.802-1.022-71.404-37.754-63.254-77.534 9.196-43.882 23.476-85.706 47.958-122.438 26.532-41.832 65.306-63.248 115.298-64.276 5.098-2.04 12.238-1.02 19.38-1.02z m-87.734 239.762c28.552-1.018 53.036-15.306 64.26-43.876 16.332-43.864 32.652-87.736 47.96-131.612 7.132-20.406-5.096-38.772-27.544-38.772-29.59 0-54.07 16.326-64.276 43.876-16.332 43.874-31.636 86.728-47.958 130.596-7.132 17.346 3.06 39.788 27.558 39.788z" fill="#5E5E5C" p-id="8665"></path></svg>